<!DOCTYPE svg PUBLIC "-//W3C//DTD SVG 20010904//EN" "http://www.w3.org/TR/2001/REC-SVG-20010904/DTD/svg10.dtd">
<svg version="1.0" xmlns="http://www.w3.org/2000/svg" width="720px" height="1280px" viewBox="0 0 7200 12800" preserveAspectRatio="xMidYMid meet">
<g id="layer101" fill="#464c4c" stroke="none">
 <path d="M0 6400 l0 -6400 3600 0 3600 0 0 6400 0 6400 -3600 0 -3600 0 0 -6400z"/>
 </g>
<g id="layer102" fill="#03609a" stroke="none">
 <path d="M0 6400 l0 -6400 3600 0 3600 0 0 6400 0 6400 -3600 0 -3600 0 0 -6400z m2027 2654 c46 -24 65 -41 90 -83 17 -29 37 -75 42 -103 7 -31 11 -242 11 -573 l0 -525 -85 0 -84 0 -3 543 c-3 597 -1 572 -64 614 -27 17 -111 22 -154 8 -20 -6 -21 -4 -18 66 3 68 5 74 28 81 14 4 60 6 102 4 63 -2 89 -8 135 -32z m875 -276 c29 -14 70 -40 91 -57 83 -74 130 -238 110 -385 -20 -141 -89 -242 -202 -295 -49 -23 -68 -26 -161 -26 -94 0 -111 3 -165 28 -76 35 -119 77 -156 149 -93 183 -46 442 101 550 98 72 267 88 382 36z m1683 21 c32 -6 76 -18 97 -26 l38 -15 0 -64 c0 -35 -2 -64 -5 -64 -3 0 -33 9 -65 20 -143 48 -289 33 -349 -35 -27 -31 -61 -116 -61 -152 0 -10 51 -13 260 -13 l260 0 0 -79 c0 -160 -66 -280 -182 -332 -44 -19 -70 -23 -153 -23 -89 -1 -106 3 -157 27 -105 51 -169 150 -190 295 -27 187 47 364 180 428 89 43 209 55 327 33z m-1125 -133 l0 -134 46 -37 c25 -20 46 -36 48 -34 2 2 56 77 121 167 65 90 123 166 130 168 6 3 51 4 98 2 l87 -3 -164 -220 -164 -220 92 -98 c50 -54 119 -130 154 -168 l64 -69 -95 0 -94 0 -114 123 c-63 67 -134 148 -159 180 -25 31 -47 57 -50 57 -3 0 -4 -151 -2 -335 l3 -335 -81 0 -80 0 0 545 0 545 80 0 80 0 0 -134z m1652 -103 c3 -262 5 -271 71 -341 39 -41 121 -67 182 -58 l43 7 7 -70 c4 -38 4 -75 0 -80 -3 -6 -32 -11 -63 -11 -77 0 -145 33 -204 98 -51 58 -49 59 -63 -40 l-7 -48 -64 0 -64 0 0 390 0 390 79 0 79 0 4 -237z"/>
 <path d="M2645 8651 c-75 -46 -99 -103 -99 -241 -1 -97 1 -109 29 -164 38 -75 74 -96 163 -96 71 0 108 15 145 59 39 46 51 97 51 201 0 52 -5 112 -13 133 -16 46 -54 93 -92 112 -41 22 -147 19 -184 -4z"/>
 <path d="M4253 8290 c3 -22 15 -56 27 -76 34 -53 74 -74 146 -74 96 0 153 50 169 148 l7 42 -177 0 -178 0 6 -40z"/>
 </g>
<g id="layer103" fill="#0369a9" stroke="none">
 <path d="M0 6400 l0 -6400 3600 0 3600 0 0 6400 0 6400 -3600 0 -3600 0 0 -6400z m2027 2654 c46 -24 65 -41 90 -83 17 -29 37 -75 42 -103 7 -31 11 -242 11 -573 l0 -525 -85 0 -84 0 -3 543 c-3 597 -1 572 -64 614 -27 17 -111 22 -154 8 -20 -6 -21 -4 -18 66 3 68 5 74 28 81 14 4 60 6 102 4 63 -2 89 -8 135 -32z m875 -276 c29 -14 70 -40 91 -57 83 -74 130 -238 110 -385 -20 -141 -89 -242 -202 -295 -49 -23 -68 -26 -161 -26 -94 0 -111 3 -165 28 -76 35 -119 77 -156 149 -93 183 -46 442 101 550 98 72 267 88 382 36z m1683 21 c32 -6 76 -18 97 -26 l38 -15 0 -64 c0 -35 -2 -64 -5 -64 -3 0 -33 9 -65 20 -143 48 -289 33 -349 -35 -27 -31 -61 -116 -61 -152 0 -10 51 -13 260 -13 l260 0 0 -79 c0 -160 -66 -280 -182 -332 -44 -19 -70 -23 -153 -23 -89 -1 -106 3 -157 27 -105 51 -169 150 -190 295 -27 187 47 364 180 428 89 43 209 55 327 33z m-1125 -133 l0 -134 46 -37 c25 -20 46 -36 48 -34 2 2 56 77 121 167 65 90 123 166 130 168 6 3 51 4 98 2 l87 -3 -164 -220 -164 -220 92 -98 c50 -54 119 -130 154 -168 l64 -69 -95 0 -94 0 -114 123 c-63 67 -134 148 -159 180 -25 31 -47 57 -50 57 -3 0 -4 -151 -2 -335 l3 -335 -81 0 -80 0 0 545 0 545 80 0 80 0 0 -134z m1652 -103 c3 -262 5 -271 71 -341 39 -41 121 -67 182 -58 l43 7 7 -70 c4 -38 4 -75 0 -80 -3 -6 -32 -11 -63 -11 -77 0 -145 33 -204 98 -51 58 -49 59 -63 -40 l-7 -48 -64 0 -64 0 0 390 0 390 79 0 79 0 4 -237z m-1421 -1436 c24 -8 276 -148 559 -311 283 -164 586 -339 672 -389 87 -50 173 -103 191 -118 49 -41 98 -138 103 -207 5 -62 7 -64 -38 33 -23 50 -88 113 -153 150 -27 15 -75 41 -105 58 -30 16 -59 33 -65 37 -5 5 -66 40 -135 79 -69 39 -132 75 -140 80 -23 15 -190 111 -240 139 -25 14 -49 28 -55 32 -5 4 -28 18 -50 31 -22 12 -85 48 -140 79 -55 31 -123 70 -151 87 -28 17 -78 46 -110 64 -33 18 -73 40 -90 49 -24 14 -116 40 -139 40 -3 0 -6 -199 -7 -442 l-3 -443 -186 -3 -186 -2 -68 -228 c-37 -125 -70 -233 -73 -239 -2 -7 1 -13 6 -13 6 0 14 9 17 20 4 11 17 32 29 48 13 15 25 34 27 43 2 8 33 68 69 132 l65 117 150 -2 150 -3 0 -540 0 -540 -350 0 -349 0 -26 -87 c-14 -48 -27 -89 -30 -92 -5 -5 -125 191 -144 234 -11 26 -32 59 -48 77 -22 26 -205 335 -218 367 -5 15 -14 25 -18 22 -5 -3 11 -117 35 -253 24 -136 45 -264 48 -283 2 -19 10 -63 18 -98 l14 -63 216 -216 c149 -148 221 -214 232 -210 8 4 95 27 192 52 l178 47 58 60 c31 32 57 62 57 65 0 3 23 33 52 67 29 33 53 63 55 65 5 8 33 -22 27 -30 -3 -5 -2 -9 3 -9 4 0 7 -283 5 -630 l-2 -630 -33 0 c-39 1 -102 23 -126 44 -10 9 -23 16 -30 16 -6 0 -38 17 -69 37 -31 20 -88 53 -126 72 -37 20 -79 46 -91 57 -13 12 -26 20 -28 18 -6 -7 -80 37 -90 53 -4 7 -14 13 -22 13 -15 0 -300 162 -326 186 -8 8 -19 14 -24 14 -10 0 -369 205 -410 234 -16 12 -42 27 -57 34 -16 6 -28 16 -28 22 0 5 -9 10 -19 10 -24 0 -73 55 -109 123 l-27 52 0 875 0 875 28 53 c15 29 45 69 66 90 20 20 143 97 272 171 129 74 432 249 674 389 242 141 458 261 480 268 53 17 132 17 186 1z m1219 -1451 c0 -3 -5 -8 -12 -12 -7 -4 -8 -3 -4 4 7 12 16 16 16 8z m-1055 -1206 c3 -5 4 -10 1 -10 -3 0 -8 5 -11 10 -3 6 -4 10 -1 10 3 0 8 -4 11 -10z m1072 -327 c-4 -3 -10 -3 -14 0 -3 4 0 7 7 7 7 0 10 -3 7 -7z m-860 -480 c-4 -3 -10 -3 -14 0 -3 4 0 7 7 7 7 0 10 -3 7 -7z"/>
 <path d="M2645 8651 c-75 -46 -99 -103 -99 -241 -1 -97 1 -109 29 -164 38 -75 74 -96 163 -96 71 0 108 15 145 59 39 46 51 97 51 201 0 52 -5 112 -13 133 -16 46 -54 93 -92 112 -41 22 -147 19 -184 -4z"/>
 <path d="M4253 8290 c3 -22 15 -56 27 -76 34 -53 74 -74 146 -74 96 0 153 50 169 148 l7 42 -177 0 -178 0 6 -40z"/>
 <path d="M2317 5662 c-73 -76 4 -198 104 -163 17 6 36 8 43 4 6 -3 8 -3 4 2 -4 4 -1 20 7 36 39 74 -6 149 -87 149 -35 0 -50 -6 -71 -28z"/>
 <path d="M3039 5647 c25 -40 30 -41 61 -17 24 18 24 19 6 33 -10 8 -34 14 -53 15 l-35 1 21 -32z"/>
 <path d="M3025 5300 c-27 -46 -51 -77 -57 -73 -7 3 -8 1 -4 -5 4 -7 -3 -16 -17 -23 l-25 -11 21 -50 c15 -37 24 -47 36 -43 26 9 410 239 411 245 0 3 -15 7 -32 8 -33 2 -180 18 -250 27 -36 5 -36 5 -83 -75z"/>
 </g>
<g id="layer104" fill="#dae5eb" stroke="none">
 <path d="M0 6400 l0 -6400 3600 0 3600 0 0 6400 0 6400 -3600 0 -3600 0 0 -6400z m2027 2654 c46 -24 65 -41 90 -83 17 -29 37 -75 42 -103 7 -31 11 -242 11 -573 l0 -525 -85 0 -84 0 -3 543 c-3 597 -1 572 -64 614 -27 17 -111 22 -154 8 -20 -6 -21 -4 -18 66 3 68 5 74 28 81 14 4 60 6 102 4 63 -2 89 -8 135 -32z m875 -276 c29 -14 70 -40 91 -57 83 -74 130 -238 110 -385 -20 -141 -89 -242 -202 -295 -49 -23 -68 -26 -161 -26 -94 0 -111 3 -165 28 -76 35 -119 77 -156 149 -93 183 -46 442 101 550 98 72 267 88 382 36z m1683 21 c32 -6 76 -18 97 -26 l38 -15 0 -64 c0 -35 -2 -64 -5 -64 -3 0 -33 9 -65 20 -143 48 -289 33 -349 -35 -27 -31 -61 -116 -61 -152 0 -10 51 -13 260 -13 l260 0 0 -79 c0 -160 -66 -280 -182 -332 -44 -19 -70 -23 -153 -23 -89 -1 -106 3 -157 27 -105 51 -169 150 -190 295 -27 187 47 364 180 428 89 43 209 55 327 33z m-1125 -133 l0 -134 46 -37 c25 -20 46 -36 48 -34 2 2 56 77 121 167 65 90 123 166 130 168 6 3 51 4 98 2 l87 -3 -164 -220 -164 -220 92 -98 c50 -54 119 -130 154 -168 l64 -69 -95 0 -94 0 -114 123 c-63 67 -134 148 -159 180 -25 31 -47 57 -50 57 -3 0 -4 -151 -2 -335 l3 -335 -81 0 -80 0 0 545 0 545 80 0 80 0 0 -134z m1652 -103 c3 -262 5 -271 71 -341 39 -41 121 -67 182 -58 l43 7 7 -70 c4 -38 4 -75 0 -80 -3 -6 -32 -11 -63 -11 -77 0 -145 33 -204 98 -51 58 -49 59 -63 -40 l-7 -48 -64 0 -64 0 0 390 0 390 79 0 79 0 4 -237z m-1421 -1436 c24 -8 276 -148 559 -311 283 -164 586 -339 672 -389 193 -111 215 -129 259 -209 l34 -63 0 -875 0 -875 -28 -57 c-15 -31 -44 -71 -65 -90 -20 -18 -219 -139 -442 -267 -223 -129 -517 -300 -655 -379 -336 -195 -337 -195 -439 -190 -73 4 -91 9 -157 45 -217 119 -1328 768 -1351 790 -14 14 -41 53 -60 87 l-33 61 0 875 0 875 28 53 c15 29 45 69 66 90 20 20 143 97 272 171 129 74 432 249 674 389 242 141 458 261 480 268 53 17 132 17 186 1z"/>
 <path d="M2645 8651 c-75 -46 -99 -103 -99 -241 -1 -97 1 -109 29 -164 38 -75 74 -96 163 -96 71 0 108 15 145 59 39 46 51 97 51 201 0 52 -5 112 -13 133 -16 46 -54 93 -92 112 -41 22 -147 19 -184 -4z"/>
 <path d="M4253 8290 c3 -22 15 -56 27 -76 34 -53 74 -74 146 -74 96 0 153 50 169 148 l7 42 -177 0 -178 0 6 -40z"/>
 <path d="M3155 5943 c-37 -126 -70 -234 -73 -240 -2 -7 0 -13 4 -13 5 0 54 82 109 181 l100 181 290 -7 c199 -5 294 -10 302 -18 6 -7 68 -91 137 -187 l126 -174 -32 -17 c-34 -18 -32 -20 37 -34 29 -5 32 -2 53 40 12 25 22 48 22 51 0 3 -16 -3 -35 -14 l-34 -21 -24 52 c-12 29 -61 141 -107 249 l-85 198 -361 0 -361 0 -68 -227z"/>
 <path d="M4761 5826 c-72 -40 -66 -148 11 -180 41 -18 82 -9 114 25 80 84 -23 211 -125 155z"/>
 <path d="M2317 5662 c-20 -20 -27 -39 -27 -66 0 -48 13 -72 50 -91 37 -19 54 -19 95 0 95 46 60 185 -47 185 -35 0 -50 -6 -71 -28z"/>
 <path d="M3039 5647 c25 -40 30 -41 61 -17 24 18 24 19 6 33 -10 8 -34 14 -53 15 l-35 1 21 -32z"/>
 <path d="M4579 5185 c-118 -239 -217 -435 -220 -435 -3 0 -12 35 -18 78 -7 42 -15 87 -18 98 -4 21 -12 22 -201 27 -108 4 -429 8 -712 9 l-514 3 -26 -87 c-14 -48 -27 -89 -30 -92 -3 -3 -100 152 -215 344 -182 304 -237 388 -220 338 2 -7 29 -159 60 -337 31 -178 60 -331 65 -340 5 -9 104 -110 219 -225 150 -148 215 -207 226 -202 9 3 97 27 196 53 l181 47 106 125 c58 69 107 127 108 129 1 2 80 -60 176 -138 95 -78 182 -146 193 -151 26 -11 530 -119 555 -119 16 0 48 55 155 270 l135 270 10 272 c5 150 12 324 14 386 3 61 2 112 -3 112 -4 0 -104 -196 -222 -435z"/>
 <path d="M3024 5298 c-26 -44 -60 -88 -74 -96 l-27 -16 20 -48 c15 -37 24 -47 36 -43 26 9 410 239 411 245 0 3 -15 7 -32 8 -33 2 -180 18 -250 27 -36 5 -36 5 -84 -77z"/>
 <path d="M4080 5359 c-36 -5 -105 -13 -154 -17 l-88 -7 214 -127 c118 -71 217 -128 221 -128 8 0 47 75 47 90 0 6 -9 14 -21 18 -11 5 -44 46 -73 92 -28 47 -58 85 -66 86 -8 1 -44 -2 -80 -7z"/>
 </g>
<g id="layer105" fill="#e7e7e7" stroke="none">
 <path d="M0 6400 l0 -6400 3600 0 3600 0 0 6400 0 6400 -3600 0 -3600 0 0 -6400z m2027 2654 c46 -24 65 -41 90 -83 17 -29 37 -75 42 -103 7 -31 11 -242 11 -573 l0 -525 -85 0 -84 0 -3 543 c-3 597 -1 572 -64 614 -27 17 -111 22 -154 8 -20 -6 -21 -4 -18 66 3 68 5 74 28 81 14 4 60 6 102 4 63 -2 89 -8 135 -32z m875 -276 c29 -14 70 -40 91 -57 83 -74 130 -238 110 -385 -20 -141 -89 -242 -202 -295 -49 -23 -68 -26 -161 -26 -94 0 -111 3 -165 28 -76 35 -119 77 -156 149 -93 183 -46 442 101 550 98 72 267 88 382 36z m1683 21 c32 -6 76 -18 97 -26 l38 -15 0 -64 c0 -35 -2 -64 -5 -64 -3 0 -33 9 -65 20 -143 48 -289 33 -349 -35 -27 -31 -61 -116 -61 -152 0 -10 51 -13 260 -13 l260 0 0 -79 c0 -160 -66 -280 -182 -332 -44 -19 -70 -23 -153 -23 -89 -1 -106 3 -157 27 -105 51 -169 150 -190 295 -27 187 47 364 180 428 89 43 209 55 327 33z m-1125 -133 l0 -134 46 -37 c25 -20 46 -36 48 -34 2 2 56 77 121 167 65 90 123 166 130 168 6 3 51 4 98 2 l87 -3 -164 -220 -164 -220 92 -98 c50 -54 119 -130 154 -168 l64 -69 -95 0 -94 0 -114 123 c-63 67 -134 148 -159 180 -25 31 -47 57 -50 57 -3 0 -4 -151 -2 -335 l3 -335 -81 0 -80 0 0 545 0 545 80 0 80 0 0 -134z m1652 -103 c3 -262 5 -271 71 -341 39 -41 121 -67 182 -58 l43 7 7 -70 c4 -38 4 -75 0 -80 -3 -6 -32 -11 -63 -11 -77 0 -145 33 -204 98 -51 58 -49 59 -63 -40 l-7 -48 -64 0 -64 0 0 390 0 390 79 0 79 0 4 -237z m-1283 -1504 c74 -44 139 -79 144 -79 5 0 23 -11 40 -23 74 -55 249 -148 265 -142 9 3 13 3 9 -1 -10 -11 13 -34 35 -34 10 0 21 -7 24 -15 4 -8 14 -15 24 -15 9 0 25 -9 34 -19 10 -11 38 -29 64 -41 67 -31 111 -56 130 -73 9 -8 53 -34 97 -57 44 -23 87 -48 96 -56 8 -8 22 -14 29 -14 8 0 23 -8 34 -19 19 -17 81 -51 116 -65 20 -8 49 -26 83 -53 16 -13 34 -23 40 -23 19 0 50 -39 87 -110 l35 -65 5 -855 c3 -470 1 -860 -3 -867 -5 -7 -6 -16 -3 -22 16 -25 -125 -211 -160 -211 -8 0 -32 -13 -52 -29 -20 -16 -50 -32 -65 -35 -20 -5 -27 -11 -23 -22 3 -8 2 -13 -2 -10 -16 10 -252 -116 -252 -135 0 -5 -8 -9 -17 -9 -10 0 -33 -10 -52 -23 -19 -12 -46 -30 -60 -39 -14 -9 -63 -35 -108 -58 -46 -23 -102 -57 -125 -76 -24 -19 -49 -34 -56 -34 -17 0 -117 -57 -132 -75 -7 -8 -18 -15 -26 -15 -15 0 -131 -66 -160 -92 -11 -10 -28 -18 -37 -18 -9 0 -17 -5 -17 -10 0 -6 -26 -22 -57 -36 -32 -13 -64 -31 -73 -38 -8 -7 -28 -16 -45 -20 -47 -10 -166 -13 -171 -4 -3 4 -16 8 -29 8 -13 0 -27 5 -31 11 -4 6 -35 24 -70 40 -35 16 -64 33 -64 38 0 5 -22 18 -48 29 -27 12 -55 28 -62 37 -7 8 -20 15 -30 15 -9 0 -25 9 -35 20 -10 11 -26 20 -35 20 -10 0 -23 7 -30 15 -7 8 -17 15 -22 15 -5 0 -24 11 -41 24 -43 32 -294 176 -307 176 -5 0 -42 22 -82 49 -39 27 -77 47 -85 44 -7 -3 -13 0 -13 6 0 6 -12 17 -27 23 -16 7 -42 22 -59 35 -16 12 -56 34 -87 48 -31 13 -57 29 -57 35 0 5 -7 10 -15 10 -17 0 -81 34 -110 59 -18 15 -38 29 -131 92 -13 9 -21 18 -18 22 3 3 -8 32 -25 63 l-31 57 0 878 0 877 35 51 c19 28 35 54 35 57 0 9 72 74 82 74 3 0 30 16 59 35 30 19 59 35 67 35 7 0 39 17 70 37 31 20 78 47 103 59 26 12 50 27 53 33 4 6 22 18 39 26 67 31 203 108 223 126 11 10 25 19 31 19 16 0 73 33 73 42 0 4 20 17 44 28 25 11 48 24 51 30 3 5 13 10 22 10 9 0 24 6 32 14 9 8 52 33 96 56 85 45 138 84 127 94 -3 4 2 4 12 0 13 -5 17 -4 13 3 -5 7 0 9 11 6 11 -2 32 6 49 21 17 14 35 26 41 26 6 0 43 20 84 44 72 43 74 43 167 43 l94 0 136 -78z"/>
 <path d="M2645 8651 c-75 -46 -99 -103 -99 -241 -1 -97 1 -109 29 -164 38 -75 74 -96 163 -96 124 0 184 66 198 217 12 129 -27 240 -101 285 -42 25 -149 25 -190 -1z"/>
 <path d="M4253 8290 c3 -22 15 -56 27 -76 34 -53 74 -74 146 -74 96 0 153 50 169 148 l7 42 -177 0 -178 0 6 -40z"/>
 <path d="M3195 6078 c-15 -51 -29 -100 -30 -108 -1 -8 -6 -27 -12 -41 -13 -29 -34 -105 -37 -129 -2 -8 -7 -26 -13 -40 -39 -94 -20 -92 32 3 22 39 41 78 43 85 2 7 18 34 37 62 18 27 44 71 57 98 l23 49 90 -2 c50 -1 180 -5 290 -10 196 -7 201 -8 228 -33 15 -14 27 -31 27 -37 0 -6 11 -22 25 -35 14 -13 25 -29 25 -36 0 -6 7 -14 15 -18 8 -3 15 -11 15 -19 0 -7 11 -24 25 -37 14 -13 25 -27 25 -32 0 -12 54 -86 67 -92 12 -5 5 32 -14 70 -5 10 -17 34 -26 52 -9 19 -17 38 -17 44 0 6 -14 40 -30 77 -59 129 -72 156 -87 189 l-16 32 -357 0 -357 0 -28 -92z"/>
 <path d="M4762 5827 c-25 -14 -52 -59 -52 -87 0 -26 30 -81 49 -87 9 -3 23 -7 31 -10 59 -22 139 53 123 115 -14 58 -100 97 -151 69z"/>
 <path d="M4215 5699 c-12 -18 -49 -27 -64 -15 -12 9 -14 8 -9 -6 5 -12 -2 -20 -24 -29 l-31 -13 44 -13 c58 -17 55 -18 69 20 6 17 16 40 21 50 10 18 5 24 -6 6z"/>
 <path d="M2319 5659 c-20 -21 -24 -31 -15 -40 8 -9 8 -10 -1 -5 -9 5 -13 -2 -13 -24 0 -38 16 -70 34 -70 8 0 19 -7 26 -15 24 -29 82 -10 120 38 71 89 -73 200 -151 116z"/>
 <path d="M3040 5670 c-9 -6 -8 -14 5 -34 10 -14 20 -26 24 -26 9 1 41 26 41 33 0 12 -58 34 -70 27z"/>
 <path d="M4706 5438 c-193 -398 -341 -688 -351 -685 -5 2 -11 15 -12 28 -1 26 -9 84 -18 137 l-6 32 -112 2 c-62 1 -341 4 -622 6 -280 2 -550 4 -600 5 -71 2 -89 -1 -87 -12 1 -7 -1 -18 -7 -25 -5 -6 -19 -44 -30 -83 -12 -40 -24 -73 -27 -73 -2 0 -9 10 -14 23 -6 12 -19 36 -30 52 -11 17 -26 46 -35 65 -9 19 -24 44 -34 55 -10 11 -23 34 -30 52 -7 18 -20 38 -28 45 -8 7 -19 21 -24 33 -5 11 -18 34 -28 50 -11 17 -34 58 -51 92 -18 34 -41 70 -51 79 -11 9 -19 22 -19 27 0 14 -73 137 -81 137 -4 0 -3 -17 3 -37 5 -21 11 -49 12 -63 10 -85 19 -137 28 -147 5 -7 7 -17 4 -22 -4 -5 -1 -29 5 -53 6 -24 12 -54 14 -68 1 -14 4 -26 5 -27 1 -2 4 -15 6 -30 1 -16 5 -41 9 -58 3 -16 8 -48 10 -70 11 -104 17 -111 242 -335 155 -155 216 -210 225 -203 7 5 26 10 42 11 16 1 34 6 40 10 6 5 22 9 36 10 13 1 34 5 45 10 11 5 56 18 100 27 90 20 135 42 151 73 6 12 23 31 37 42 15 12 27 27 27 35 0 7 11 20 25 29 14 9 25 21 25 27 0 6 17 26 37 45 l36 35 27 -26 c14 -14 30 -25 34 -25 5 0 19 -10 31 -22 13 -13 35 -32 50 -43 15 -11 45 -37 68 -58 23 -21 54 -45 68 -52 15 -8 29 -21 32 -30 4 -8 13 -15 20 -15 8 0 20 -7 27 -15 7 -8 16 -13 20 -10 4 2 22 0 41 -6 37 -11 55 -15 113 -24 21 -3 46 -10 56 -15 9 -5 20 -7 23 -4 3 3 14 1 25 -5 10 -6 37 -13 58 -16 55 -7 77 -12 94 -19 8 -3 29 -8 45 -10 17 -3 45 -7 63 -10 l32 -5 140 277 140 277 5 130 c3 72 7 213 10 315 2 102 7 213 11 248 3 34 2 62 -3 62 -4 0 -48 -82 -97 -182z m-1931 -828 c3 -5 4 -10 1 -10 -3 0 -8 5 -11 10 -3 6 -4 10 -1 10 3 0 8 -4 11 -10z"/>
 <path d="M3066 5362 c-22 -63 -93 -156 -127 -167 -17 -6 -17 -9 2 -53 11 -26 22 -48 24 -50 6 -6 49 20 58 34 4 8 15 14 23 14 18 0 148 75 165 96 6 8 16 14 22 14 13 0 157 83 157 91 0 3 -19 7 -42 7 -50 2 -99 6 -148 15 -98 17 -128 17 -134 -1z"/>
 <path d="M4138 5365 c-3 -4 -26 -8 -49 -10 -24 -2 -69 -7 -99 -11 -30 -3 -67 -7 -82 -8 -38 -2 -39 -18 -3 -35 17 -8 50 -28 75 -46 62 -44 233 -145 247 -145 6 0 16 -7 23 -15 19 -23 28 -19 50 25 23 46 25 60 7 60 -21 0 -50 35 -87 105 -38 73 -64 98 -82 80z"/>
 </g>

</svg>